<?xml version="1.0" standalone="no"?>
<!DOCTYPE svg PUBLIC "-//W3C//DTD SVG 20010904//EN"
 "http://www.w3.org/TR/2001/REC-SVG-20010904/DTD/svg10.dtd">
<svg version="1.0" xmlns="http://www.w3.org/2000/svg"
 width="980.000000pt" height="980.000000pt" viewBox="0 0 980.000000 980.000000"
 preserveAspectRatio="xMidYMid meet">

<g transform="translate(0.000000,980.000000) scale(0.100000,-0.100000)"
fill="#000000" stroke="none">
<path d="M7207 9064 c-69 -50 -88 -85 -85 -161 3 -58 0 -65 -38 -120 -55 -79
-60 -102 -29 -148 l26 -37 -63 -136 c-34 -76 -64 -140 -68 -144 -3 -4 -56 22
-117 57 -62 36 -117 65 -124 65 -7 0 -270 -148 -585 -330 -314 -181 -575 -330
-579 -330 -4 0 -23 14 -43 31 -137 121 -328 122 -447 4 -72 -72 -101 -195 -72
-302 l14 -53 -41 -23 c-80 -45 -593 -341 -690 -399 -55 -32 -104 -58 -109 -58
-19 0 31 267 81 440 l28 95 41 7 c46 8 113 39 132 62 7 8 20 35 29 59 14 37
34 58 112 118 186 143 340 332 340 416 0 41 -34 89 -79 113 -112 57 -263 -9
-372 -163 -47 -66 -51 -69 -45 -37 29 157 29 325 0 382 -30 58 -114 74 -191
37 -156 -76 -197 -338 -98 -637 28 -84 33 -107 24 -129 -19 -50 8 -131 61
-188 l28 -30 -34 -120 c-19 -66 -46 -185 -60 -265 -14 -80 -27 -154 -29 -165
-3 -13 -38 -40 -104 -78 -55 -31 -104 -57 -108 -57 -5 0 -35 53 -67 118 -91
185 -195 355 -287 473 -34 43 -34 46 -12 90 10 19 19 65 21 105 5 85 -22 158
-74 204 -32 28 -34 33 -34 98 0 152 -45 415 -101 587 -41 126 -113 269 -146
293 -89 63 -203 45 -285 -46 -124 -138 -125 -359 -3 -620 l44 -93 -85 76
c-161 143 -365 277 -444 290 -92 15 -185 -48 -214 -146 -20 -66 -20 -100 -1
-174 43 -164 179 -302 411 -415 106 -52 273 -106 391 -127 80 -14 96 -20 103
-39 31 -82 252 -130 344 -76 22 13 42 19 45 15 3 -5 36 -52 73 -104 89 -127
179 -280 244 -414 45 -92 51 -112 39 -120 -8 -5 -127 -75 -266 -155 -166 -96
-258 -155 -273 -175 -18 -26 -21 -46 -24 -167 l-4 -138 -29 -21 c-16 -11 -29
-18 -30 -15 -4 18 -1 43 6 59 7 17 -15 167 -35 238 -15 53 -55 108 -162 223
l-96 102 39 42 c38 40 39 43 39 115 0 185 -65 324 -176 377 -120 58 -303 -2
-364 -120 -28 -54 -42 -173 -31 -250 16 -105 24 -125 53 -128 17 -2 30 -14 41
-38 21 -44 22 -39 -13 -54 -42 -17 -98 -83 -126 -147 -27 -61 -25 -80 12 -130
l24 -31 -27 -47 c-21 -38 -26 -60 -26 -114 1 -36 6 -78 11 -93 10 -25 8 -30
-36 -69 -82 -72 -89 -75 -116 -50 -13 13 -43 27 -66 32 -37 9 -46 7 -74 -14
-17 -13 -69 -41 -116 -61 -47 -21 -89 -41 -94 -46 -4 -4 27 -32 70 -61 44 -29
82 -56 85 -61 3 -5 19 -16 36 -26 48 -27 223 -166 220 -175 -1 -5 -83 -55
-182 -112 -247 -142 -229 -106 -235 -452 l-5 -274 -115 92 c-63 50 -123 97
-134 105 -18 12 -18 15 -3 31 55 61 68 408 21 557 -45 142 -171 201 -239 112
-50 -66 -54 -202 -9 -330 8 -22 13 -41 11 -42 -2 -2 -41 42 -87 97 -157 188
-263 269 -355 269 -122 0 -113 -102 24 -272 62 -77 171 -179 254 -238 26 -18
47 -36 47 -40 0 -4 -24 -3 -52 2 -29 5 -105 10 -168 11 -97 1 -124 -3 -171
-21 -66 -26 -92 -51 -91 -88 0 -73 136 -123 353 -131 149 -6 245 8 367 52 79
29 63 36 233 -102 l116 -93 7 -52 c8 -56 45 -134 80 -167 11 -11 50 -37 85
-58 58 -35 65 -44 89 -102 25 -63 25 -64 7 -98 -12 -22 -52 -56 -117 -99 -104
-70 -128 -99 -128 -158 0 -40 28 -66 72 -66 l27 0 3 -347 3 -348 27 -50 c29
-57 100 -127 153 -152 19 -9 35 -19 34 -22 -1 -14 -76 -67 -142 -102 l-72 -39
163 7 164 6 -7 -69 c-4 -38 -9 -77 -11 -86 -3 -10 -3 -18 1 -18 16 0 107 53
154 90 l52 41 239 -138 c216 -125 235 -138 204 -141 -18 -2 -68 7 -111 18 -42
12 -99 23 -125 24 -42 1 -52 -3 -79 -32 -16 -17 -25 -32 -20 -32 6 0 15 8 20
19 11 20 68 48 78 37 9 -8 -27 -46 -44 -46 -11 0 -11 -4 -2 -21 9 -17 17 -20
44 -16 18 3 38 1 44 -4 6 -5 9 -6 6 -2 -3 3 5 11 18 17 12 6 23 22 25 34 2 12
4 22 5 22 1 0 24 -7 51 -15 27 -8 76 -15 108 -15 101 0 168 -46 168 -116 0
-38 -37 -71 -67 -60 -14 6 -16 5 -6 -5 10 -10 7 -15 -17 -25 -40 -17 -38 -30
6 -39 46 -8 41 -13 -27 -21 -29 -3 -57 -8 -60 -10 -4 -2 -10 3 -13 12 -8 22
-8 22 12 27 10 3 7 5 -10 6 -22 1 -26 -3 -21 -16 5 -13 2 -15 -18 -9 -13 4
-42 9 -64 11 -22 2 -67 12 -100 23 -33 11 -63 18 -67 16 -9 -6 -48 20 -116 75
-32 26 -40 37 -30 43 10 7 10 9 -2 5 -8 -2 -32 9 -53 26 -41 32 -44 47 -5 26
20 -11 22 -11 10 3 -15 19 -74 30 -69 14 3 -9 71 -67 184 -156 l22 -17 -94
-184 c-110 -217 -215 -449 -251 -555 -41 -124 -88 -182 -191 -238 -88 -48
-126 -145 -74 -187 50 -41 143 -10 223 74 47 50 65 61 104 68 26 5 49 7 51 5
2 -2 -44 -43 -102 -91 -58 -48 -110 -96 -116 -107 -18 -33 -98 -19 -209 36
-110 54 -130 51 -130 -17 0 -49 29 -100 104 -182 25 -27 53 -70 63 -95 9 -25
25 -55 36 -67 39 -44 71 -28 159 79 31 37 44 46 80 51 50 6 331 143 428 209
36 23 124 100 197 169 116 111 144 133 225 172 65 32 133 55 225 76 225 52
300 106 382 275 27 56 55 130 62 164 7 34 16 62 20 62 7 0 102 -54 516 -294
73 -42 135 -76 138 -76 4 0 79 42 168 94 171 98 208 120 782 451 198 114 432
249 520 300 88 51 477 276 865 500 388 224 776 448 863 497 l157 91 0 82 0 82
-45 24 -45 24 0 256 0 255 93 61 c149 98 398 233 428 233 7 0 32 -18 56 -41
61 -56 160 -101 226 -103 48 -1 52 1 55 23 5 31 -49 86 -106 108 l-44 17 74
21 c96 28 157 62 165 94 13 52 -73 68 -169 31 -69 -26 -73 -25 -48 10 72 100
-10 183 -97 98 -37 -36 -99 -150 -109 -201 -5 -29 -16 -37 -102 -79 -116 -56
-250 -132 -349 -199 l-73 -49 0 64 0 64 45 26 c44 26 45 28 45 79 0 47 7 64
58 147 68 111 175 265 259 369 l60 74 119 2 c97 1 132 5 188 25 94 33 160 77
164 112 7 58 -89 76 -210 38 -34 -11 -66 -20 -70 -20 -4 0 16 30 44 68 62 82
109 179 116 237 4 40 2 45 -21 56 -55 25 -128 -34 -195 -158 -23 -42 -42 -80
-42 -85 0 -4 -3 -8 -7 -8 -5 0 -9 22 -9 49 -4 103 -44 165 -105 159 -25 -2
-39 -12 -56 -37 -43 -63 -25 -233 37 -366 16 -33 25 -64 21 -70 -5 -5 -39 -48
-76 -95 -37 -47 -112 -152 -167 -235 -55 -82 -101 -152 -103 -154 -2 -2 -30
12 -62 32 -32 19 -161 94 -288 167 -126 73 -231 134 -233 135 -2 2 20 17 47
34 l51 31 0 74 0 75 -40 22 c-34 19 -40 28 -40 56 0 39 -12 30 275 195 110 64
421 243 690 398 270 155 496 287 503 293 8 6 12 34 11 79 l-2 69 -38 22 c-21
12 -39 29 -39 37 -1 18 -1 548 0 571 0 8 18 25 40 38 l40 22 0 72 0 72 -232
134 c-128 74 -395 228 -593 342 -198 114 -380 220 -404 236 l-45 28 -68 220
c-72 231 -112 379 -122 455 -6 42 -4 50 35 100 58 78 82 128 75 157 -8 30 -49
46 -95 38 l-34 -6 7 56 c12 101 -24 120 -107 59z m91 -13 c7 -75 -4 -99 -64
-127 -63 -30 -89 -69 -105 -162 -5 -31 -17 -76 -25 -100 -15 -42 -17 -43 -35
-26 -31 28 -23 69 27 142 44 64 45 68 39 122 -7 69 4 91 74 147 62 52 85 52
89 4z m120 -152 c2 -29 -5 -47 -43 -98 -53 -71 -78 -123 -99 -202 -19 -68 -46
-105 -94 -124 -38 -16 -63 -13 -87 11 -21 22 -19 64 10 139 13 36 29 93 35
127 17 90 41 132 92 156 65 30 69 31 128 29 l55 -2 3 -36z m-4238 -97 c33 -20
45 -36 81 -105 92 -177 159 -454 175 -723 l7 -112 -73 -68 c-95 -90 -96 -91
-127 -62 -36 34 -181 215 -218 273 -188 293 -221 583 -85 739 69 78 169 102
240 58z m4135 -169 c-3 -16 -11 -32 -17 -38 -8 -7 -9 -4 -4 8 3 10 6 27 6 38
0 10 5 19 11 19 7 0 9 -10 4 -27z m-2946 -137 c15 -8 33 -27 40 -43 21 -45 16
-241 -9 -363 -20 -101 -84 -306 -100 -324 -5 -5 -30 -3 -59 4 -49 11 -51 13
-72 68 -106 284 -84 546 55 640 53 35 99 41 145 18z m2456 -141 l113 -66 -33
-82 c-18 -45 -41 -107 -50 -138 l-18 -56 -172 -76 c-94 -41 -198 -80 -230 -86
-80 -15 -135 -44 -182 -95 -76 -83 -250 -143 -385 -133 -38 3 -111 18 -163 33
-86 25 -97 31 -120 66 l-25 38 23 13 c12 8 85 50 162 95 77 44 228 130 335
192 107 62 274 157 370 213 96 55 193 111 215 123 22 13 42 24 44 24 2 0 54
-29 116 -65z m-4355 26 c205 -78 527 -363 734 -649 l39 -54 -61 -60 -60 -61
-93 17 c-258 47 -510 167 -657 312 -124 123 -170 289 -113 406 24 50 62 84
109 98 40 12 47 12 102 -9z m2347 -102 c74 -28 99 -92 63 -161 -51 -99 -182
-239 -325 -348 -56 -44 -85 -60 -100 -56 -11 3 -44 11 -73 18 -53 11 -53 12
-48 42 4 17 22 73 40 124 100 273 292 439 443 381z m2363 -202 c6 -46 22 -113
34 -150 l22 -66 -103 -35 c-57 -19 -103 -32 -103 -29 0 4 6 14 14 22 22 24 61
135 85 244 13 53 26 97 31 97 4 0 13 -37 20 -83z m547 -243 c326 -188 760
-438 891 -515 l133 -77 -33 -20 c-34 -20 -101 -59 -758 -437 -217 -126 -447
-258 -510 -295 -63 -37 -207 -120 -320 -185 -113 -65 -261 -150 -330 -190
-126 -73 -461 -267 -969 -560 -151 -87 -279 -158 -286 -158 -12 0 -225 121
-1205 688 -631 365 -780 450 -814 464 l-38 17 183 106 c839 485 1305 752 1320
755 11 3 25 -11 46 -49 45 -79 80 -110 115 -103 20 5 35 1 53 -13 13 -11 22
-22 19 -25 -3 -3 -7 -54 -9 -114 -2 -107 -3 -108 -43 -168 -22 -33 -72 -114
-111 -180 -82 -139 -101 -162 -158 -200 -36 -23 -48 -26 -85 -20 -24 4 -50 11
-59 16 -21 11 -343 -130 -347 -153 -2 -10 37 -42 117 -94 66 -43 122 -87 124
-96 3 -9 18 -20 33 -24 16 -4 88 -54 161 -111 80 -63 137 -102 144 -97 7 4 9
3 6 -4 -4 -5 16 -28 44 -51 l50 -40 91 102 c123 139 158 182 158 195 0 6 -13
18 -30 27 -16 9 -30 20 -30 25 0 6 -18 30 -40 54 -71 77 -53 101 90 122 236
34 432 83 498 124 18 11 41 34 52 52 28 46 79 179 100 263 l18 70 93 26 c105
29 283 101 464 190 67 32 161 72 210 90 123 42 248 96 439 188 282 135 376
210 376 299 0 26 -30 155 -46 197 -10 26 -2 22 193 -91z m-2454 49 c-7 -2 -21
-2 -30 0 -10 3 -4 5 12 5 17 0 24 -2 18 -5z m-107 -28 c-11 -8 -24 -15 -30
-15 -5 0 -1 7 10 15 10 8 24 14 29 14 6 0 1 -6 -9 -14z m224 5 c8 -5 11 -10 5
-10 -5 0 -17 5 -25 10 -8 5 -10 10 -5 10 6 0 17 -5 25 -10z m-270 -24 c0 -2
-7 -7 -16 -10 -8 -3 -12 -2 -9 4 6 10 25 14 25 6z m-1590 -106 c19 -45 17
-145 -4 -190 -23 -51 -43 -73 -57 -64 -8 5 -10 3 -4 -6 6 -10 4 -12 -9 -7 -9
4 -15 3 -12 -2 3 -5 -4 -11 -17 -15 -30 -8 -122 -8 -130 1 -4 3 -19 8 -34 9
-33 4 -107 54 -111 76 -3 16 94 115 109 111 5 -2 8 1 7 5 -5 13 144 152 155
145 6 -3 7 -1 3 5 -3 6 2 15 11 21 15 8 24 4 48 -22 17 -18 37 -48 45 -67z
m1954 71 c-2 -3 -12 3 -22 13 -16 17 -16 18 5 5 12 -7 20 -15 17 -18z m-404
-1 c0 -5 -5 -10 -11 -10 -5 0 -7 5 -4 10 3 6 8 10 11 10 2 0 4 -4 4 -10z m451
-37 c13 -16 12 -17 -3 -4 -10 7 -18 15 -18 17 0 8 8 3 21 -13z m-500 -27 c-9
-18 -18 -29 -19 -24 -4 8 24 58 32 58 2 0 -4 -15 -13 -34z m-787 3 c47 -13 54
-15 139 -35 41 -10 67 -21 67 -29 0 -88 -153 -162 -210 -103 -54 56 -81 178
-41 178 3 0 23 -5 45 -11z m1339 -48 c25 -43 14 -39 -13 4 -12 19 -27 32 -32
29 -7 -4 -8 -2 -4 5 10 15 25 3 49 -38z m656 -3 c11 -11 12 -10 6 1 -9 17 38
8 101 -20 51 -21 126 -87 117 -102 -3 -5 -2 -7 4 -4 14 9 93 -99 123 -169 24
-55 43 -149 35 -174 -6 -19 -65 -59 -65 -44 0 4 -8 1 -17 -7 -10 -8 -40 -25
-68 -36 -27 -12 -86 -38 -130 -58 -43 -20 -87 -34 -97 -32 -10 3 -16 2 -13 -2
9 -15 -158 -76 -182 -67 -7 3 -15 1 -18 -4 -4 -6 -13 -10 -22 -10 -13 0 -12 5
6 24 23 24 23 29 19 173 -5 158 -15 198 -60 240 -60 57 -165 57 -221 1 -41
-41 -49 -85 -48 -247 1 -85 4 -158 7 -162 9 -15 -30 3 -96 46 -70 45 -162 132
-206 196 l-27 39 23 25 c21 23 24 23 51 9 16 -8 29 -18 29 -23 0 -5 13 -23 29
-40 37 -40 81 -42 110 -5 28 36 37 122 20 208 -15 79 -19 216 -6 216 5 0 5 -5
1 -12 -4 -7 -3 -8 5 -4 6 4 33 0 59 -8 74 -25 184 -35 264 -25 73 9 189 47
224 74 24 18 27 18 43 3z m-1232 -20 c-3 -8 -6 -5 -6 6 -1 11 2 17 5 13 3 -3
4 -12 1 -19z m4 -125 c13 -16 12 -17 -3 -4 -10 7 -18 15 -18 17 0 8 8 3 21
-13z m363 5 c-5 -8 -2 -9 9 -5 23 9 21 0 -2 -13 -16 -8 -19 -7 -16 8 5 23 4
22 11 22 3 0 2 -5 -2 -12z m131 2 c-3 -5 -12 -10 -18 -10 -7 0 -6 4 3 10 19
12 23 12 15 0z m-442 -27 c-7 -2 -19 -2 -25 0 -7 3 -2 5 12 5 14 0 19 -2 13
-5z m82 -13 c3 -5 -4 -6 -15 -3 -11 3 -22 9 -25 13 -3 5 4 6 15 3 11 -3 22 -9
25 -13z m305 0 c12 -8 12 -15 -1 -57 -9 -27 -13 -58 -9 -68 13 -38 -97 -145
-149 -145 -59 1 -211 126 -247 205 l-24 50 35 7 c27 6 43 3 71 -14 31 -18 51
-21 132 -21 53 1 106 -3 119 -8 20 -7 23 -5 23 14 0 21 16 47 30 47 3 0 12 -4
20 -10z m-70 -20 c0 -5 -8 -10 -17 -10 -15 0 -16 2 -3 10 19 12 20 12 20 0z
m200 -3 c0 -7 -7 -22 -15 -33 -13 -17 -13 -16 -3 14 13 34 18 40 18 19z m58
-98 c5 -89 -10 -146 -43 -161 -31 -14 -60 3 -85 52 -13 25 -30 42 -45 46 -14
3 -22 10 -19 15 3 6 14 7 24 4 25 -8 76 38 112 103 27 47 32 52 41 36 6 -10
13 -53 15 -95z m312 0 c48 -36 63 -88 68 -236 4 -121 2 -133 -16 -151 -24 -24
-81 -42 -136 -42 -47 0 -117 20 -110 31 3 5 -2 6 -11 2 -15 -5 -16 10 -13 164
3 187 9 205 71 244 40 25 104 20 147 -12z m-456 -22 c-10 -6 -20 -5 -27 2 -8
8 -8 11 2 11 7 0 9 5 6 11 -4 6 2 5 14 -3 18 -11 18 -14 5 -21z m-371 -51 c2
2 10 -2 17 -11 10 -12 10 -15 -2 -15 -8 0 -29 19 -47 43 -32 41 -32 41 -3 10
17 -17 32 -29 35 -27z m257 -74 c0 -5 16 -27 36 -50 27 -32 35 -48 30 -66 -10
-42 -76 -47 -153 -12 -53 25 -68 47 -58 88 5 20 11 23 49 20 29 -3 46 1 55 12
14 17 41 22 41 8z m3380 -80 c0 -47 -1 -48 -52 -78 -114 -66 -329 -191 -448
-259 -69 -40 -224 -130 -345 -200 -121 -70 -254 -147 -295 -170 -41 -24 -201
-116 -355 -205 -154 -89 -296 -171 -315 -182 -160 -92 -591 -341 -655 -378
-108 -63 -541 -313 -585 -337 -19 -11 -59 -34 -88 -52 -29 -17 -55 -31 -58
-31 -3 0 -4 23 -2 51 l3 52 100 57 c55 31 159 91 230 132 72 42 204 118 295
170 152 88 749 432 970 560 52 30 119 69 148 87 29 17 55 31 57 31 2 0 50 28
107 61 56 34 117 70 133 79 74 42 510 293 600 345 55 32 118 68 140 81 22 12
121 69 220 128 99 58 183 105 188 106 4 0 7 -22 7 -48z m-3103 -173 c71 -36
69 -29 52 -160 l-11 -87 -45 -11 c-24 -6 -153 -52 -286 -102 -310 -117 -300
-114 -291 -86 9 32 37 60 142 143 128 103 155 143 187 279 15 61 33 117 41
126 8 8 14 23 14 33 0 12 19 0 67 -43 36 -33 95 -74 130 -92z m-372 110 c26
-11 67 -21 91 -22 32 0 44 -4 40 -13 -3 -7 -8 -29 -12 -48 -3 -20 -8 -36 -9
-36 -2 0 -18 14 -35 31 -28 29 -35 31 -80 27 l-50 -5 0 43 c0 24 2 44 4 44 2
0 25 -9 51 -21z m-2661 -47 c22 -24 61 -55 87 -68 26 -13 50 -28 54 -34 11
-18 41 -11 65 15 13 14 32 25 42 25 30 0 21 -39 -18 -82 -38 -42 -64 -94 -64
-126 0 -36 -136 -84 -184 -66 -21 8 -93 195 -106 278 -14 92 -10 103 42 102
36 -1 47 -7 82 -44z m2715 -37 c33 -16 41 -33 41 -81 0 -72 -57 -149 -184
-249 -95 -74 -121 -100 -135 -137 -6 -16 -24 -33 -43 -41 -18 -8 -52 -35 -76
-61 -46 -50 -52 -54 -52 -31 0 12 -10 9 -42 -13 -24 -15 -57 -34 -75 -41 -56
-22 -73 12 -25 49 l27 22 -40 -7 -40 -6 40 36 c22 20 69 51 105 70 118 61 139
81 224 226 153 261 166 277 224 278 13 1 36 -6 51 -14z m3341 -39 l0 -54 -247
-135 c-579 -316 -817 -447 -827 -457 -34 -34 30 -7 236 98 564 289 826 422
832 422 3 0 6 -90 6 -199 0 -180 -2 -199 -17 -205 -10 -4 -47 -24 -83 -46 -36
-21 -270 -156 -520 -300 -626 -361 -994 -574 -1773 -1024 -368 -212 -670 -386
-673 -386 -2 0 -4 30 -4 68 l0 67 173 96 c94 53 332 185 527 294 195 108 359
201 364 206 5 5 7 12 3 15 -6 6 -81 -28 -452 -206 -327 -157 -607 -290 -611
-290 -2 0 -4 73 -4 163 l0 162 28 16 c15 8 421 243 902 521 481 278 965 557
1075 621 110 63 391 225 625 361 234 135 428 246 433 246 4 0 7 -24 7 -54z
m-2766 -27 c38 6 70 10 71 9 6 -8 -38 -167 -66 -237 l-32 -80 -21 32 c-26 39
-79 67 -125 67 -32 0 -33 2 -28 29 3 15 9 52 12 82 3 30 8 68 11 85 l4 32 53
-16 c43 -13 63 -13 121 -3z m2766 -64 c0 -5 -213 -115 -217 -111 -4 3 199 115
210 116 4 0 7 -2 7 -5z m-5869 -188 c13 -8 31 -2 75 22 54 31 58 32 71 15 23
-31 15 -51 -42 -103 -111 -100 -274 -155 -283 -94 -2 12 6 40 17 62 12 22 21
53 21 68 0 25 7 32 58 54 55 24 57 24 62 5 3 -10 13 -24 21 -29z m2971 23 c42
-12 88 -61 88 -94 0 -68 -134 -117 -478 -175 -96 -16 -176 -32 -179 -35 -4 -3
-18 -29 -32 -58 -20 -39 -41 -63 -81 -90 -63 -43 -80 -47 -73 -18 7 26 0 25
-45 -5 -39 -27 -62 -32 -62 -14 0 6 -7 8 -15 5 -8 -3 -21 -9 -29 -12 -10 -4
-16 4 -21 26 -5 25 -2 37 15 55 13 13 24 37 26 52 4 42 108 138 159 147 22 4
148 49 280 99 232 88 348 125 390 126 11 1 37 -4 57 -9z m-2685 -120 l22 -25
-38 3 c-51 5 -93 -25 -126 -92 -22 -43 -25 -63 -25 -150 1 -114 12 -175 35
-192 10 -8 19 -39 25 -95 16 -140 19 -132 -52 -157 -126 -42 -315 -64 -368
-42 -16 7 -27 16 -24 21 3 5 2 8 -3 7 -4 -1 -18 4 -30 12 -20 13 -23 23 -23
79 0 53 -6 77 -32 130 -28 57 -33 77 -33 141 0 66 4 82 32 130 20 35 36 81 43
125 27 171 42 205 87 205 13 0 22 -4 19 -8 -3 -5 8 -6 25 -4 37 5 38 -9 4 -82
-29 -63 -31 -88 -10 -106 21 -17 102 -7 155 20 22 11 45 18 51 15 5 -4 8 -1 7
7 -2 7 5 12 14 12 10 -1 16 2 15 6 -1 4 26 31 61 59 39 33 62 60 62 73 0 17 7
13 43 -23 23 -25 52 -56 64 -69z m-595 43 c-6 -3 -10 -8 -8 -11 5 -9 -23 -194
-30 -201 -9 -9 -35 32 -29 47 2 7 0 10 -5 7 -18 -11 -10 31 16 86 29 59 54 93
63 83 3 -4 0 -9 -7 -11z m628 -105 c53 -37 69 -67 90 -172 32 -157 30 -163
-51 -191 -51 -19 -184 -24 -200 -8 -6 6 -13 63 -16 126 -5 96 -3 124 11 162
10 25 22 43 27 40 5 -4 6 2 2 11 -5 14 -3 16 12 10 11 -4 16 -4 12 0 -12 13
25 44 53 44 15 0 42 -10 60 -22z m1690 2 c8 -5 10 -10 3 -10 -6 0 -38 -21 -72
-46 -59 -44 -77 -74 -46 -74 12 0 13 -4 6 -18 -13 -24 4 -52 32 -52 12 0 46
14 76 30 60 33 61 34 61 21 0 -8 -191 -126 -194 -119 -32 75 -94 132 -158 145
-16 3 -28 9 -28 13 0 3 22 17 50 30 27 13 47 27 44 31 -3 5 1 7 8 4 7 -3 40 8
73 24 61 30 118 38 145 21z m-1185 -78 c66 -38 224 -129 350 -202 127 -73 277
-160 335 -193 58 -33 133 -77 167 -98 34 -22 65 -39 67 -39 3 0 29 -14 58 -32
29 -17 109 -63 178 -103 124 -71 429 -247 630 -363 l105 -60 3 -51 c2 -28 1
-51 -2 -51 -3 0 -27 13 -54 29 -26 15 -70 41 -98 56 -27 15 -101 58 -164 95
-153 90 -234 137 -710 410 -223 129 -529 305 -680 393 -151 88 -288 163 -304
168 -39 11 -90 -13 -106 -50 -8 -20 -10 -107 -8 -287 l3 -259 27 -46 c24 -41
105 -109 130 -109 15 0 8 -20 -19 -50 l-28 -31 -50 33 c-58 39 -110 104 -125
156 -6 22 -10 161 -10 337 0 335 2 348 69 392 60 40 100 32 236 -45z m945 24
c0 -2 -7 -7 -16 -10 -8 -3 -12 -2 -9 4 6 10 25 14 25 6z m-120 -56 c-8 -5 -19
-10 -25 -10 -5 0 -3 5 5 10 8 5 20 10 25 10 6 0 3 -5 -5 -10z m4280 -21 c0 -8
-112 -73 -980 -574 -881 -508 -1170 -675 -1325 -765 -82 -48 -208 -121 -280
-162 -71 -41 -233 -134 -358 -207 -125 -72 -234 -134 -241 -137 -13 -5 -98 41
-446 243 -169 98 -301 174 -845 488 -198 114 -370 213 -383 221 l-22 15 25 50
c14 27 29 48 33 46 4 -3 122 -71 262 -152 140 -81 424 -245 630 -365 206 -120
468 -272 582 -338 l207 -120 173 100 c95 55 202 117 238 138 36 21 211 122
390 225 179 103 370 213 425 245 91 53 530 306 1005 580 203 117 509 294 724
418 122 71 141 79 162 70 13 -6 24 -15 24 -19z m-4196 -9 c34 -13 68 -35 90
-60 34 -38 45 -61 29 -59 -26 4 -24 -5 7 -31 24 -20 30 -30 19 -30 -16 0 -56
48 -51 62 1 4 -37 30 -83 59 -47 28 -84 54 -81 56 7 8 104 -46 141 -78 19 -17
35 -26 35 -21 0 16 -74 70 -132 97 -65 29 -49 32 26 5z m-1009 -12 c30 -14 31
-18 4 -88 -41 -106 -35 -340 12 -431 10 -21 34 -47 54 -59 19 -12 35 -23 35
-26 0 -12 -46 -94 -53 -94 -21 0 -100 56 -125 88 l-27 35 -3 273 c-3 264 -2
274 18 294 23 23 47 25 85 8z m5225 -63 c0 -30 -4 -55 -10 -55 -5 0 -50 -25
-100 -55 -50 -30 -92 -55 -94 -55 -2 0 -55 -30 -117 -67 -63 -36 -157 -91
-209 -121 -52 -30 -108 -62 -125 -72 -16 -9 -75 -43 -130 -75 -55 -32 -172
-99 -260 -150 -343 -198 -812 -469 -855 -493 -25 -14 -62 -36 -82 -49 -21 -12
-39 -23 -42 -23 -2 0 -43 -24 -92 -53 -49 -29 -116 -68 -149 -86 -63 -34 -268
-153 -393 -228 -40 -23 -75 -43 -78 -43 -3 0 -18 -8 -32 -19 -15 -10 -47 -29
-72 -43 -25 -14 -116 -66 -202 -116 l-158 -91 0 52 c0 50 2 53 38 73 20 11
215 123 432 249 490 284 816 472 1165 673 149 85 284 163 300 172 63 37 277
161 435 252 196 112 444 256 665 384 88 52 161 94 163 94 1 0 2 -25 2 -55z
m-3880 24 c0 -6 -9 -22 -20 -36 -22 -29 -26 -76 -7 -90 18 -15 89 -14 117 1
21 12 26 12 35 -1 10 -13 18 -12 61 10 28 14 67 43 87 63 l37 39 32 -33 33
-32 -115 -115 -114 -115 -96 94 c-52 51 -116 105 -142 120 -27 16 -48 29 -48
31 0 5 123 75 133 75 4 0 7 -5 7 -11z m-651 -361 c344 -198 667 -385 716 -414
476 -278 600 -346 617 -335 10 6 20 11 23 11 3 0 5 -30 5 -66 l0 -65 -277 142
c-153 78 -377 192 -498 254 -121 62 -355 181 -520 265 -165 84 -405 206 -533
272 l-233 120 7 36 c10 56 44 142 56 142 6 0 292 -163 637 -362z m496 272
c-28 -12 -37 -12 -30 0 3 6 16 10 28 9 21 0 21 -1 2 -9z m515 -57 c-37 -43
-191 -203 -195 -203 -2 0 -5 7 -9 15 -7 19 214 249 227 236 6 -6 -2 -24 -23
-48z m-449 18 c48 -32 158 -134 210 -196 40 -47 46 -51 -154 106 -75 59 -133
109 -130 113 12 11 29 6 74 -23z m527 -17 c6 -4 -220 -264 -228 -264 -4 0 -15
8 -24 19 -16 18 -12 24 100 145 100 107 120 124 133 114 9 -7 18 -13 19 -14z
m-587 -1 c13 -16 12 -17 -3 -4 -10 7 -18 15 -18 17 0 8 8 3 21 -13z m-1500
-45 c3 -94 -13 -273 -26 -286 -2 -3 -19 8 -36 23 -29 23 -39 26 -90 23 l-58
-3 -5 45 c-3 25 -8 75 -11 113 l-7 67 58 0 c56 0 130 16 149 32 16 14 25 9 26
-14z m98 -431 c27 -55 89 -120 132 -138 16 -6 29 -15 29 -20 0 -14 -79 -69
-140 -98 l-55 -26 153 -3 153 -3 -6 -47 c-3 -26 -9 -59 -11 -74 -3 -16 -3 -28
1 -28 17 0 114 55 152 86 l41 34 169 -98 c282 -165 571 -332 631 -364 31 -17
95 -55 142 -83 47 -29 115 -68 153 -89 37 -20 67 -39 67 -41 0 -2 -39 -25 -87
-52 -49 -27 -227 -129 -396 -226 l-308 -177 -42 24 c-66 38 -539 310 -676 389
-175 102 -216 126 -314 181 -48 28 -84 53 -80 57 10 9 245 146 294 171 19 10
53 35 75 54 34 32 39 42 39 80 0 36 -5 48 -30 70 -31 26 -93 64 -170 103 -40
20 -41 22 -52 98 -6 43 -19 111 -28 152 -13 59 -13 76 -3 82 6 4 16 5 22 2 5
-3 6 -1 2 5 -4 6 0 22 8 34 20 32 44 150 52 251 6 74 10 86 28 95 21 9 21 8
26 -172 5 -165 7 -185 29 -229z m327 352 l114 -61 -30 -38 c-17 -21 -44 -68
-61 -105 l-29 -65 -29 14 c-40 21 -57 53 -75 139 -16 75 -21 177 -10 177 3 0
57 -27 120 -61z m-1197 -22 c26 -53 29 -132 5 -141 -30 -11 -69 -6 -99 14 -16
11 -37 20 -45 20 -8 -1 0 -7 19 -15 29 -13 32 -17 21 -31 -17 -20 1 -39 49
-51 19 -5 36 -13 38 -19 2 -5 -27 -40 -65 -77 l-67 -67 -75 70 c-41 38 -83 72
-92 75 -10 4 -18 10 -18 15 0 5 -7 7 -16 3 -12 -4 -5 -13 28 -33 44 -28 177
-150 164 -150 -11 0 -189 141 -204 161 -7 10 -19 24 -27 32 -8 8 -12 17 -9 19
2 3 -4 11 -13 19 -16 13 -17 12 -4 -3 9 -13 10 -18 2 -18 -7 0 -9 -5 -5 -11 4
-7 -12 -1 -35 13 -47 28 -54 41 -25 46 12 2 15 0 7 -5 -8 -6 -2 -14 19 -26 20
-12 27 -13 20 -4 -7 8 -9 17 -5 20 3 4 -9 13 -28 21 l-34 15 65 29 c61 28 65
29 68 11 4 -24 35 -25 57 -2 16 16 20 15 61 -6 23 -13 44 -30 46 -38 5 -23 50
17 52 45 1 19 98 112 118 112 3 0 16 -19 27 -43z m-208 -33 c12 -13 28 -24 36
-24 7 0 13 -7 13 -15 0 -21 -39 -19 -75 5 -36 24 -58 25 -75 5 -20 -24 -43
-19 -35 8 17 56 92 68 136 21z m899 -131 c14 -9 28 -22 32 -27 17 -24 7 -66
-22 -100 -47 -53 -92 -60 -381 -54 -227 5 -251 4 -289 -13 -62 -28 -66 -24
-26 21 21 24 36 50 36 66 0 30 -44 74 -74 74 -12 1 -32 7 -46 15 -22 12 -23
14 -7 21 27 10 134 -16 153 -37 29 -32 83 -40 191 -28 115 12 152 20 253 53
89 30 146 32 180 9z m1137 -151 c131 -70 478 -256 771 -412 l532 -284 0 -179
c0 -142 -3 -178 -13 -174 -7 3 -112 62 -232 132 -121 70 -461 267 -755 438
-294 171 -566 328 -603 350 -76 44 -75 41 -29 132 22 45 78 125 87 125 2 0
111 -58 242 -128z m-1806 30 c-17 -31 -117 -142 -128 -142 -31 0 -20 27 34 84
33 33 65 70 72 81 8 11 -18 -14 -57 -55 -39 -41 -74 -71 -78 -67 -4 4 25 41
66 82 72 73 75 74 86 53 7 -13 9 -29 5 -36z m6088 -41 c49 -31 -114 -316 -217
-378 -20 -13 -41 -23 -46 -23 -18 0 7 79 57 179 61 124 111 195 152 216 35 17
36 17 54 6z m-5420 -105 c11 -61 10 -70 -5 -87 -40 -44 -215 -68 -351 -50 -98
14 -186 39 -178 51 3 4 -3 6 -13 3 -11 -3 -36 9 -63 29 -34 26 -45 41 -47 67
-2 19 2 39 8 45 8 8 98 11 293 11 188 0 290 4 307 11 31 14 34 10 49 -80z
m-1578 51 c44 -29 85 -106 98 -183 25 -138 4 -436 -33 -472 -8 -8 -21 -12 -30
-9 -18 7 -68 110 -134 277 -41 104 -45 125 -49 215 -5 112 10 159 57 182 36
18 52 16 91 -10z m6708 -30 c26 -53 28 -139 5 -258 -19 -105 -23 -119 -34
-119 -16 0 -50 77 -71 157 -38 150 -17 263 50 263 25 0 33 -7 50 -43z m-7204
-21 c65 -30 127 -86 229 -205 129 -152 173 -211 205 -281 16 -36 28 -66 26
-68 -1 -2 -36 5 -76 16 -84 21 -155 67 -291 185 -123 108 -238 268 -238 331 0
50 65 60 145 22z m1395 14 c0 -5 -21 -24 -47 -41 -27 -18 -91 -65 -144 -105
l-96 -73 -43 13 -43 13 94 55 c266 156 279 162 279 138z m35 -60 c11 -12 35
-30 55 -41 22 -13 40 -32 46 -52 6 -18 14 -39 18 -47 5 -12 -29 -35 -146 -99
-247 -135 -281 -157 -329 -208 -56 -60 -73 -107 -66 -182 5 -57 84 -326 159
-539 22 -63 37 -116 34 -119 -11 -12 -57 9 -66 30 -5 12 -48 117 -96 232 -48
116 -104 252 -125 302 -21 51 -43 119 -50 150 -28 141 43 232 381 485 80 59
150 108 156 108 6 0 19 -9 29 -20z m669 -122 c8 -86 -6 -168 -35 -209 -50 -71
-228 -159 -514 -255 -110 -36 -209 -71 -220 -77 -48 -24 -46 -53 8 -144 28
-45 50 -98 60 -145 21 -90 38 -358 24 -375 -19 -25 -84 -37 -126 -25 -32 10
-42 20 -59 60 -54 126 -194 567 -207 653 -17 117 40 190 237 299 198 109 312
173 317 177 3 2 -5 21 -17 42 -12 21 -22 41 -22 43 0 3 24 -2 53 -10 36 -11
99 -16 207 -16 158 -1 237 11 261 40 21 25 27 15 33 -58z m867 -64 c101 -58
267 -155 369 -214 102 -59 201 -116 220 -127 19 -11 112 -64 205 -118 175
-101 399 -230 587 -338 l108 -62 0 -52 0 -52 -112 66 c-62 36 -248 143 -413
238 -277 159 -427 246 -515 298 -19 11 -70 40 -113 64 -43 24 -95 54 -115 67
-20 12 -125 73 -232 134 -253 144 -239 133 -212 162 12 13 22 27 22 32 0 16
20 6 201 -98z m814 76 c3 -6 -1 -7 -9 -4 -18 7 -21 14 -7 14 6 0 13 -4 16 -10z
m266 -135 c134 -69 295 -151 357 -183 101 -51 131 -72 102 -72 -5 0 -105 51
-222 114 -516 275 -499 266 -486 266 2 0 114 -56 249 -125z m-2978 65 c5 -4 0
-14 -11 -21 -30 -22 -123 -110 -159 -152 l-33 -38 0 61 c0 90 35 144 102 160
35 9 87 3 101 -10z m6543 -4 c15 -12 17 -19 9 -33 -16 -27 -136 -82 -217 -99
-67 -14 -180 -16 -193 -2 -15 14 13 39 78 69 155 71 280 96 323 65z m-1396
-24 c0 -24 -11 -34 -97 -84 -372 -214 -1210 -698 -1268 -731 -38 -22 -225
-130 -415 -240 -190 -109 -435 -251 -545 -314 -424 -245 -652 -377 -697 -404
-26 -16 -49 -25 -51 -21 -2 4 -3 34 -3 66 1 51 4 61 26 76 14 10 189 109 390
221 627 349 653 364 649 374 -2 6 -6 9 -9 8 -5 -1 -579 -276 -884 -422 -82
-39 -154 -71 -160 -71 -8 0 -11 44 -11 155 0 124 3 157 15 168 15 14 701 412
810 471 l55 29 220 -128 c121 -70 225 -128 230 -128 6 0 118 63 250 140 132
77 364 211 515 298 151 87 433 250 625 361 193 112 351 203 353 203 1 1 2 -11
2 -27z m-1035 -160 c-14 -12 -617 -346 -632 -350 -8 -2 -13 7 -13 23 0 27 1
28 335 185 33 16 116 56 185 89 126 61 142 68 125 53z m995 -32 c-24 -15 -36
-11 -14 4 10 8 21 12 24 10 2 -3 -2 -9 -10 -14z m60 -38 c-8 -3 -18 -10 -22
-16 -4 -6 -6 -1 -6 10 2 16 7 20 22 16 15 -4 17 -7 6 -10z m-6040 -43 c47 -6
128 -20 182 -33 78 -19 101 -28 121 -52 31 -35 29 -37 -92 -71 -107 -30 -295
-41 -396 -24 -87 15 -184 48 -208 69 -30 27 -18 64 30 90 73 40 158 45 363 21z
m5775 -39 c-3 -5 -11 -10 -16 -10 -6 0 -7 5 -4 10 3 6 11 10 16 10 6 0 7 -4 4
-10z m404 -92 c97 -55 222 -128 279 -161 57 -32 102 -61 100 -62 -4 -4 -227
-133 -1318 -763 -481 -278 -1077 -622 -1325 -765 -247 -143 -500 -289 -561
-323 l-112 -64 -278 161 c-154 89 -343 198 -421 243 -142 81 -142 81 -143 117
-1 90 -65 198 -118 199 -9 0 -26 7 -36 15 -29 22 -79 18 -151 -10 l-63 -26
-94 54 c-51 30 -167 97 -258 149 -91 52 -239 138 -330 190 -90 52 -165 99
-167 105 -2 5 15 19 37 32 58 33 70 48 70 92 0 21 2 39 4 39 6 0 180 -100 189
-109 11 -11 -10 -27 -96 -73 l-72 -39 150 3 c128 3 150 1 149 -12 0 -8 -4 -43
-8 -78 l-7 -63 43 22 c24 12 61 35 84 51 l41 29 184 -106 c101 -59 213 -124
249 -145 107 -63 633 -366 658 -379 28 -15 -17 -39 747 404 652 377 759 439
970 560 88 50 320 184 515 297 195 113 477 275 625 361 149 86 274 157 279
157 5 0 88 -46 185 -102z m-444 72 c-3 -5 -12 -10 -18 -10 -7 0 -6 4 3 10 19
12 23 12 15 0z m-3921 -181 c154 -89 313 -181 351 -204 39 -23 95 -55 125 -72
30 -16 120 -68 200 -115 80 -46 197 -114 261 -151 l115 -66 3 -52 c1 -28 -2
-49 -6 -46 -4 2 -57 33 -118 67 -60 35 -206 119 -323 187 -117 68 -234 135
-260 149 -26 15 -67 39 -92 54 -46 27 -186 108 -450 260 -80 46 -158 91 -174
100 l-28 18 43 15 c24 8 50 16 58 16 7 1 140 -72 295 -160z m3986 137 c0 -2
-7 -7 -16 -10 -8 -3 -12 -2 -9 4 6 10 25 14 25 6z m-165 -16 c-3 -5 -12 -10
-18 -10 -7 0 -6 4 3 10 19 12 23 12 15 0z m-4069 -109 c104 -60 443 -255 754
-435 366 -211 568 -322 574 -316 20 20 26 9 26 -50 0 -33 -2 -60 -5 -60 -3 0
-47 22 -98 49 -51 26 -236 121 -412 211 -1280 650 -1242 630 -1219 643 10 6
57 23 104 38 47 16 86 28 86 29 1 0 86 -49 190 -109z m159 89 c3 -5 2 -10 -4
-10 -5 0 -13 5 -16 10 -3 6 -2 10 4 10 5 0 13 -4 16 -10z m3845 -14 c0 -2 -7
-7 -16 -10 -8 -3 -12 -2 -9 4 6 10 25 14 25 6z m1674 -33 c-2 -43 -33 -84
-113 -149 -59 -49 -66 -53 -69 -34 -5 29 53 149 91 188 24 25 39 32 62 30 27
-3 30 -6 29 -35z m-1719 7 c-3 -5 -12 -10 -18 -10 -7 0 -6 4 3 10 19 12 23 12
15 0z m-35 -20 c0 -5 -5 -10 -11 -10 -5 0 -7 5 -4 10 3 6 8 10 11 10 2 0 4 -4
4 -10z m-4750 -173 c0 -5 22 -55 49 -111 68 -142 67 -140 31 -121 -53 27 -103
79 -126 130 -21 43 -24 66 -24 160 l1 110 34 -79 c19 -44 35 -84 35 -89z m725
-17 c127 -67 249 -133 272 -147 l42 -24 -32 -42 c-17 -23 -45 -74 -61 -112
-16 -39 -31 -72 -32 -74 -3 -3 -171 92 -356 199 l-57 33 -11 66 c-11 65 -30
110 -84 204 -16 26 -25 55 -22 63 5 14 14 12 59 -14 28 -16 156 -84 282 -152z
m4144 176 c-2 -2 -15 -9 -29 -15 -24 -11 -24 -11 -6 3 16 13 49 24 35 12z
m-219 -40 c0 -2 -7 -7 -16 -10 -8 -3 -12 -2 -9 4 6 10 25 14 25 6z m2034 -22
c32 -12 15 -36 -49 -65 -94 -44 -255 -68 -255 -38 0 11 107 65 175 90 52 18
102 23 129 13z m-2084 -14 c-8 -5 -19 -10 -25 -10 -5 0 -3 5 5 10 8 5 20 10
25 10 6 0 3 -5 -5 -10z m1223 -210 c-4 -4 -100 -61 -213 -125 -210 -121 -512
-294 -565 -325 -85 -50 -365 -212 -475 -275 -69 -40 -176 -102 -239 -138 -62
-37 -115 -67 -116 -67 -1 0 -81 -46 -176 -101 -152 -89 -598 -346 -774 -446
-33 -19 -64 -38 -70 -42 -5 -5 -35 -22 -65 -38 -31 -17 -137 -77 -235 -135
-99 -58 -200 -116 -225 -130 -25 -14 -69 -39 -97 -56 l-53 -31 0 57 0 58 88
51 c93 55 693 402 752 435 19 11 55 32 80 47 25 14 57 33 73 41 15 8 112 64
215 124 263 153 560 325 607 352 22 12 81 45 130 74 50 29 133 77 185 108 52
30 199 114 325 187 127 73 275 158 330 190 55 32 120 69 145 83 25 14 61 35
80 47 19 12 42 25 50 28 8 4 67 38 130 75 l115 68 3 -55 c2 -29 -1 -57 -5 -61z
m-2863 100 c0 -5 -2 -10 -4 -10 -3 0 -8 5 -11 10 -3 6 -1 10 4 10 6 0 11 -4
11 -10z m45 -10 c3 -6 -1 -7 -9 -4 -18 7 -21 14 -7 14 6 0 13 -4 16 -10z
m3414 -10 c109 -29 210 -95 183 -122 -14 -14 -120 13 -171 45 -79 49 -126 108
-73 93 10 -3 37 -10 61 -16z m-3385 -9 c3 -5 -3 -11 -15 -14 -16 -4 -18 -3 -8
9 13 16 16 17 23 5z m1291 -91 c3 -6 -1 -7 -9 -4 -18 7 -21 14 -7 14 6 0 13
-4 16 -10z m-1605 -14 c0 -2 -7 -7 -16 -10 -8 -3 -12 -2 -9 4 6 10 25 14 25 6z
m-1535 -97 l104 -61 -35 -49 c-20 -27 -51 -84 -69 -127 -63 -151 -96 -205
-164 -272 -36 -36 -81 -73 -99 -84 l-34 -18 7 48 c3 27 8 59 11 72 4 22 3 22
-101 22 l-106 0 59 49 c83 69 120 125 195 290 61 132 97 191 119 191 5 0 55
-27 113 -61z m4565 -12 l0 -62 -117 -64 c-720 -392 -1070 -586 -1083 -597 -11
-11 -12 -14 -1 -14 8 0 281 135 608 301 l593 300 -2 -222 -3 -221 -320 -185
c-176 -102 -540 -313 -810 -468 -269 -156 -661 -382 -870 -502 -984 -569
-1151 -665 -1160 -666 -6 -1 -10 28 -10 72 l0 75 315 176 c173 97 439 245 590
329 151 84 279 157 283 161 41 38 -90 -20 -593 -261 -321 -153 -587 -279 -591
-279 -4 0 -7 81 -7 180 l-1 179 57 34 c31 19 134 79 227 132 150 87 649 374
1005 580 69 39 242 140 385 222 143 83 481 278 750 434 270 155 546 315 615
355 69 40 128 73 133 73 4 1 7 -27 7 -62z m-3010 43 c0 -5 -2 -10 -4 -10 -3 0
-8 5 -11 10 -3 6 -1 10 4 10 6 0 11 -4 11 -10z m1436 -15 c-11 -8 -25 -15 -30
-15 -6 1 0 7 14 15 32 19 40 18 16 0z m-1496 -25 c-35 -24 -54 -31 -30 -11 14
11 30 21 35 21 6 0 3 -5 -5 -10z m1285 -10 c-3 -5 -12 -10 -18 -10 -7 0 -6 4
3 10 19 12 23 12 15 0z m-1355 -29 c0 -5 -7 -12 -16 -15 -14 -5 -15 -4 -4 9
14 17 20 19 20 6z m-141 -5 c-2 -2 -15 -9 -29 -15 -24 -11 -24 -11 -6 3 16 13
49 24 35 12z m1576 -5 c-6 -6 -28 -17 -50 -27 -46 -18 -42 -11 7 16 38 20 57
25 43 11z m-1490 -21 c-3 -5 -12 -10 -18 -10 -7 0 -6 4 3 10 19 12 23 12 15 0z
m-1103 -68 c69 -37 261 -139 427 -227 l301 -160 0 -183 0 -184 -32 20 c-18 11
-240 140 -493 287 -253 146 -464 270 -468 275 -18 17 104 241 131 240 4 0 64
-31 134 -68z m662 -306 c33 -17 61 -37 64 -44 5 -16 14 -20 -403 201 -176 93
-324 174 -330 179 -8 9 385 -189 669 -336z m3623 329 c-26 -19 -318 -168 -322
-163 -5 5 308 176 325 177 11 0 11 -3 -3 -14z m-5150 -39 c32 -18 100 -58 150
-88 l93 -54 -28 -34 -28 -33 -110 62 c-127 73 -144 89 -144 142 0 21 2 39 4
39 2 0 30 -15 63 -34z m1858 14 c-3 -5 -12 -10 -18 -10 -7 0 -6 4 3 10 19 12
23 12 15 0z m1345 -55 c0 -2 -10 -9 -22 -15 -22 -11 -22 -10 -4 4 21 17 26 19
26 11z m-1600 -85 c0 -5 -5 -10 -11 -10 -5 0 -7 5 -4 10 3 6 8 10 11 10 2 0 4
-4 4 -10z m1300 -10 c-8 -5 -19 -10 -25 -10 -5 0 -3 5 5 10 8 5 20 10 25 10 6
0 3 -5 -5 -10z m-655 -83 c-11 -8 -56 -33 -100 -57 -44 -24 -179 -99 -299
-167 -120 -67 -222 -120 -226 -118 -4 3 -5 15 -3 28 4 20 53 47 316 174 295
143 358 171 312 140z m455 -31 c0 -2 -7 -7 -16 -10 -8 -3 -12 -2 -9 4 6 10 25
14 25 6z m-2443 -297 c230 -133 419 -243 421 -244 5 -5 -50 -85 -58 -85 -4 0
-106 57 -226 126 -121 70 -313 180 -429 247 -115 66 -212 121 -214 123 -8 7
65 82 76 79 7 -2 200 -113 430 -246z m343 198 c41 -24 183 -106 315 -182 132
-77 321 -186 420 -242 99 -57 186 -111 192 -120 11 -14 16 -93 6 -93 -4 0 -82
44 -238 135 -222 129 -343 199 -395 228 -30 16 -59 33 -65 37 -11 9 -251 147
-323 187 -26 14 -49 27 -51 29 -5 5 50 64 59 64 3 0 39 -19 80 -43z m1970 23
c-8 -5 -19 -10 -25 -10 -5 0 -3 5 5 10 8 5 20 10 25 10 6 0 3 -5 -5 -10z
m-3047 -104 c16 -5 17 -27 17 -273 0 -260 1 -269 24 -318 25 -54 65 -94 127
-126 22 -11 39 -23 39 -27 0 -4 -14 -24 -31 -45 l-30 -37 -41 21 c-58 30 -123
93 -150 147 -22 46 -23 55 -26 369 l-3 323 28 -15 c15 -8 36 -16 46 -19z m158
-48 c-32 -94 -35 -270 -8 -391 18 -77 41 -111 105 -157 l21 -15 -26 -52 -25
-52 -42 20 c-22 12 -56 35 -74 53 -63 59 -65 73 -69 369 l-3 267 28 1 c15 0
45 6 67 14 22 7 43 13 46 14 3 1 -6 -32 -20 -71z m503 -176 l429 -248 12 -44
c23 -81 37 -151 32 -157 -3 -3 -111 49 -239 115 -128 65 -347 177 -486 248
l-253 129 6 40 c9 62 45 165 58 165 7 0 205 -112 441 -248z m5020 183 c11 -8
18 -16 15 -19 -2 -2 -49 -29 -104 -61 -313 -180 -581 -335 -713 -411 -53 -31
-110 -65 -127 -74 -16 -9 -104 -60 -195 -112 -91 -53 -181 -105 -200 -116 -33
-19 -105 -60 -555 -320 -110 -63 -267 -154 -350 -202 -82 -48 -242 -140 -355
-205 -585 -339 -701 -405 -707 -405 -3 0 -91 50 -196 112 -106 61 -208 120
-227 131 -19 10 -66 38 -105 60 -38 22 -71 41 -71 41 -3 1 18 121 21 124 2 2
21 -8 42 -22 20 -14 41 -26 45 -26 4 0 59 -31 124 -70 64 -38 118 -70 119 -70
5 0 280 -162 292 -172 14 -11 24 -6 197 96 70 42 129 76 131 76 2 0 50 28 107
61 57 34 121 72 143 84 106 60 522 300 597 344 28 17 330 191 383 221 33 19
282 163 675 390 140 81 347 201 460 266 370 213 435 250 470 272 41 26 58 27
84 7z m-2824 -45 c-8 -5 -19 -10 -25 -10 -5 0 -3 5 5 10 8 5 20 10 25 10 6 0
3 -5 -5 -10z m2860 -57 l0 -58 -261 -150 c-144 -82 -280 -161 -303 -174 -22
-13 -121 -70 -219 -127 -98 -57 -180 -104 -183 -104 -2 0 -23 -12 -47 -27 -23
-15 -98 -59 -167 -98 -69 -40 -165 -96 -215 -125 -49 -28 -110 -63 -135 -77
-25 -14 -146 -84 -270 -155 -472 -273 -654 -378 -740 -428 -480 -278 -545
-315 -680 -392 l-85 -48 -3 52 c-3 42 0 56 15 66 20 15 173 104 448 262 179
103 235 135 600 347 105 60 210 121 235 135 25 14 119 68 210 120 91 53 181
105 200 116 19 11 100 58 180 104 80 46 269 155 420 242 307 177 415 240 558
323 53 31 115 66 137 78 22 13 99 57 170 99 72 42 131 76 133 76 1 0 2 -26 2
-57z m-3160 -33 c0 -5 -5 -10 -11 -10 -5 0 -7 5 -4 10 3 6 8 10 11 10 2 0 4
-4 4 -10z m100 -24 c0 -2 -7 -7 -16 -10 -8 -3 -12 -2 -9 4 6 10 25 14 25 6z
m-2260 -137 l23 -15 -35 -45 c-19 -25 -48 -76 -63 -112 -16 -37 -35 -67 -42
-67 -7 0 -28 14 -48 31 -45 40 -65 104 -72 238 l-6 104 110 -59 c60 -33 120
-66 133 -75z m2150 81 c0 -5 -2 -10 -4 -10 -3 0 -8 5 -11 10 -3 6 -1 10 4 10
6 0 11 -4 11 -10z m-80 -54 c0 -2 -7 -7 -16 -10 -8 -3 -12 -2 -9 4 6 10 25 14
25 6z m-1190 -26 c0 -5 -5 -10 -11 -10 -5 0 -7 5 -4 10 3 6 8 10 11 10 2 0 4
-4 4 -10z m155 -20 c3 -6 -1 -7 -9 -4 -18 7 -21 14 -7 14 6 0 13 -4 16 -10z
m53 -26 c2 -1 -4 -4 -13 -8 -9 -3 -13 -2 -10 4 3 6 1 10 -4 10 -6 0 -11 5 -11
11 0 8 6 7 18 -2 9 -7 18 -14 20 -15z m882 16 c-8 -5 -19 -10 -25 -10 -5 0 -3
5 5 10 8 5 20 10 25 10 6 0 3 -5 -5 -10z m-1817 -53 c153 -89 148 -84 124
-109 -28 -28 -66 -97 -115 -211 -28 -66 -65 -140 -82 -167 -39 -61 -136 -153
-152 -144 -7 4 -8 3 -4 -4 6 -10 -40 -42 -60 -42 -4 0 -3 32 0 70 7 63 5 70
-11 71 -10 0 -63 0 -118 -1 l-100 0 25 20 c14 11 31 18 37 15 7 -2 12 -1 10 3
-1 4 7 16 18 28 101 104 150 184 215 349 26 66 95 175 111 175 5 0 51 -24 102
-53z m569 -69 c-8 -8 -9 -4 -5 13 4 13 8 18 11 10 2 -7 -1 -18 -6 -23z m31 -3
c-3 -9 -8 -14 -10 -11 -3 3 -2 9 2 15 9 16 15 13 8 -4z m107 5 c-8 -5 -19 -10
-25 -10 -5 0 -3 5 5 10 8 5 20 10 25 10 6 0 3 -5 -5 -10z m267 -37 c-3 -10 -5
-2 -5 17 0 19 2 27 5 18 2 -10 2 -26 0 -35z m638 37 c-3 -5 -16 -15 -28 -21
-19 -9 -19 -8 3 10 28 23 34 26 25 11z m-861 -53 c7 -52 12 -61 81 -139 21
-25 34 -22 40 10 13 62 44 80 63 37 18 -38 15 -60 -12 -92 -13 -16 -26 -42
-28 -58 -2 -24 -14 -36 -58 -63 -70 -42 -126 -59 -148 -46 -20 12 -111 275
-112 322 0 30 2 32 33 32 18 0 53 11 77 24 25 13 48 24 51 25 4 0 10 -23 13
-52z m-84 39 c0 -2 -7 -7 -16 -10 -8 -3 -12 -2 -9 4 6 10 25 14 25 6z m-268
-128 c182 -98 213 -117 224 -145 20 -46 19 -48 -25 -62 -45 -13 -85 -56 -113
-118 -10 -24 -22 -43 -26 -43 -4 0 -99 53 -212 119 -172 99 -205 122 -203 140
7 54 108 221 135 221 5 0 105 -51 220 -112z m402 26 c5 -14 4 -15 -9 -4 -17
14 -19 20 -6 20 5 0 12 -7 15 -16z m96 12 c0 -2 -7 -7 -16 -10 -8 -3 -12 -2
-9 4 6 10 25 14 25 6z m159 -30 c31 -19 72 -43 91 -53 19 -11 127 -73 240
-138 113 -65 256 -148 318 -184 63 -35 116 -70 119 -76 2 -7 3 -36 1 -64 l-3
-52 -420 243 c-231 134 -425 246 -431 250 -8 5 -6 22 5 58 8 27 17 50 19 50 3
0 30 -15 61 -34z m-92 -8 c-3 -8 -6 -5 -6 6 -1 11 2 17 5 13 3 -3 4 -12 1 -19z
m-122 -18 c-3 -5 -1 -10 4 -10 6 0 11 -5 11 -11 0 -8 -5 -8 -15 1 -13 11 -12
30 1 30 3 0 2 -4 -1 -10z m810 -468 c179 -103 191 -108 213 -94 l22 14 0 -71
c0 -39 -3 -71 -6 -71 -3 0 -144 70 -314 155 -260 131 -321 166 -386 221 -42
36 -116 92 -165 125 -88 59 -98 73 -79 109 11 20 -37 46 715 -388z m-668 234
c-21 -32 -109 -74 -172 -82 -42 -5 -54 -2 -77 16 -16 12 -28 25 -28 29 0 4 25
15 55 25 71 22 139 73 143 108 3 25 4 25 49 -23 44 -47 45 -49 30 -73z m-743
-22 c111 -64 203 -118 205 -120 4 -3 -39 -114 -44 -114 -4 0 -415 238 -423
245 -5 5 44 105 52 105 5 0 99 -52 210 -116z m404 54 c-3 -7 2 -19 9 -27 8 -7
12 -19 9 -26 -3 -8 2 -11 15 -8 12 4 19 0 19 -9 0 -8 11 -25 25 -38 22 -20 31
-22 87 -18 61 5 158 43 173 68 4 6 11 8 16 4 5 -3 9 -2 8 3 -1 4 -1 19 0 31
l1 24 28 -22 c15 -12 42 -31 60 -42 26 -16 30 -23 20 -30 -10 -8 -9 -9 3 -5
10 3 31 -7 50 -24 22 -20 27 -29 17 -29 -23 0 -76 -55 -95 -99 -36 -83 -52
-222 -53 -452 l0 -36 -112 -7 c-137 -8 -220 5 -309 45 l-66 31 2 116 c2 64 -3
198 -10 296 -12 154 -11 184 1 207 16 32 26 40 68 50 17 4 33 7 34 8 2 1 2 -5
0 -11z m-465 -192 l206 -120 -2 -50 c-2 -50 -1 -51 47 -83 27 -18 61 -33 77
-33 28 0 29 -1 29 -55 0 -30 -4 -55 -10 -55 -5 0 -10 13 -10 29 0 33 -45 85
-83 97 -12 4 -24 10 -27 13 -3 4 -79 49 -170 100 -136 78 -325 188 -338 197
-8 5 54 83 64 81 6 -1 104 -56 217 -121z m333 42 c2 -24 5 -74 8 -113 3 -38 7
-99 8 -135 l1 -65 -29 3 c-33 4 -102 46 -111 67 -5 14 108 297 116 290 2 -3 5
-24 7 -47z m725 -35 c39 -47 51 -98 60 -256 8 -129 8 -162 -3 -173 -20 -19
-117 -41 -167 -37 -72 5 -75 11 -67 138 8 136 29 226 64 281 38 62 85 81 113
47z m647 -348 c2 -8 1 -15 -1 -15 -13 0 -602 321 -605 330 -2 6 133 -59 300
-144 175 -90 304 -162 306 -171z m-303 120 c138 -73 262 -139 278 -146 l27
-12 0 -204 0 -204 -22 12 c-13 7 -104 59 -203 117 -384 223 -367 212 -354 228
9 11 10 53 6 162 -4 81 -10 158 -13 171 -9 32 -17 36 281 -124z m1105 51 c0
-2 -35 -23 -77 -46 -43 -24 -210 -116 -370 -207 -161 -90 -299 -166 -307 -169
-9 -4 -15 4 -18 25 l-4 29 385 186 c416 200 391 188 391 182z m-2536 -69 c23
-17 11 -47 -19 -47 -12 0 -37 -3 -55 -7 l-33 -6 29 36 c31 39 49 45 78 24z
m383 -211 c-3 -8 -17 -12 -34 -10 -16 2 -20 1 -8 -2 11 -4 47 -21 80 -40 103
-57 166 -68 354 -60 182 7 219 -1 246 -55 22 -42 18 -67 -14 -100 -28 -28 -33
-29 -118 -29 -95 0 -185 18 -345 70 -84 26 -102 29 -140 20 -24 -5 -48 -10
-55 -10 -14 0 -93 77 -93 90 0 5 -8 14 -17 19 -16 9 -15 10 7 11 67 1 97 34
43 46 -16 3 -32 7 -38 8 -5 2 7 8 28 15 20 7 37 17 37 22 0 5 6 9 13 9 8 0 22
9 33 21 17 19 19 19 22 5 2 -10 1 -23 -1 -30z m700 -76 c-4 -30 -11 -70 -18
-88 l-11 -33 -18 29 c-24 39 -57 61 -103 69 -28 4 -37 10 -33 20 4 8 6 24 6
36 0 21 4 22 91 22 l91 0 -5 -55z m316 -265 l277 -160 0 -63 0 -64 -32 20
c-104 61 -169 100 -313 182 -88 51 -190 110 -227 131 l-66 39 21 49 c19 46 22
49 42 38 12 -7 146 -84 298 -172z m-1235 -27 l145 -122 -24 -18 c-180 -131
-520 -387 -573 -433 -38 -32 -66 -50 -61 -39 5 10 9 42 10 69 1 57 42 140 214
433 54 92 106 182 115 200 9 17 19 32 23 32 3 0 71 -55 151 -122z m507 87
c123 -33 271 -43 316 -20 32 17 33 16 19 -40 -19 -72 -42 -125 -51 -120 -5 4
-6 -1 -3 -9 10 -26 -9 -18 -51 22 -39 37 -78 59 -265 155 -52 26 -88 46 -80
44 9 -3 60 -17 115 -32z m-1127 -560 c26 -14 57 -25 70 -25 43 0 53 -88 14
-123 -16 -14 -51 -24 -93 -26 -10 -1 -41 -26 -70 -57 -63 -65 -115 -95 -171
-97 -33 -2 -44 3 -60 24 -20 26 -20 27 0 73 15 34 33 53 69 75 97 60 121 80
153 130 18 28 35 51 37 51 2 0 25 -11 51 -25z m-382 -372 c12 -21 29 -61 38
-90 11 -34 36 -73 71 -113 55 -60 72 -97 61 -125 -8 -21 -42 -19 -65 4 -11 11
-25 38 -32 61 -7 24 -38 70 -76 113 -34 39 -70 86 -78 103 -18 39 -20 101 -2
107 22 8 62 -20 83 -60z m69 -2 c64 -30 126 -37 176 -21 38 13 41 12 66 -12
19 -19 27 -40 31 -76 4 -50 4 -50 -37 -78 -23 -15 -58 -50 -78 -77 l-37 -50
-10 29 c-5 16 -29 51 -53 78 -48 53 -73 97 -93 161 -7 22 -16 44 -21 50 -11
11 -12 28 -1 23 4 -2 30 -14 57 -27z"/>
<path d="M5421 7272 c-7 -13 -6 -19 2 -19 7 0 13 9 13 19 0 10 -1 18 -3 18 -1
0 -7 -8 -12 -18z"/>
<path d="M2168 5884 c-38 -20 -36 -28 2 -9 17 9 30 18 30 20 0 7 -1 6 -32 -11z"/>
<path d="M3129 5553 c-13 -16 -12 -17 4 -4 9 7 17 15 17 17 0 8 -8 3 -21 -13z"/>
<path d="M3809 2063 c-13 -16 -12 -17 4 -4 16 13 21 21 13 21 -2 0 -10 -8 -17
-17z"/>
<path d="M7870 3624 c-116 -50 -158 -139 -127 -271 l15 -61 -25 -5 c-14 -2
-75 -5 -136 -6 -74 -2 -119 -7 -139 -17 -61 -32 -166 -203 -198 -324 -7 -25
-19 -52 -27 -62 -26 -30 -114 -60 -217 -74 -56 -7 -118 -18 -138 -24 -68 -20
-154 -89 -295 -237 -151 -159 -137 -150 -368 -253 -76 -34 -168 -98 -539 -378
-217 -163 -251 -192 -265 -227 -27 -70 -64 -122 -92 -132 -40 -15 -47 -53 -21
-111 12 -26 26 -80 32 -121 12 -82 36 -125 75 -135 51 -13 95 41 95 117 0 59
19 94 68 127 56 37 88 46 106 31 27 -23 215 57 596 255 120 62 202 98 260 113
319 83 663 226 820 340 56 40 71 47 102 43 22 -2 53 4 82 16 l46 21 58 -53
c31 -29 82 -72 112 -95 53 -42 55 -43 110 -36 30 4 70 13 89 21 19 8 37 11 41
7 4 -5 24 -29 44 -55 l38 -48 77 63 c42 34 85 69 95 77 11 8 30 25 43 38 14
12 28 20 34 17 5 -4 6 2 2 11 -5 13 -3 16 10 11 10 -4 16 -2 14 5 -1 7 3 12 9
13 6 0 39 19 73 43 51 36 61 48 61 73 0 34 -19 79 -54 126 -17 24 -27 57 -36
120 -17 124 -35 199 -74 307 -56 155 -101 228 -162 267 -31 18 -31 21 -23 61
9 36 21 220 22 303 0 36 -54 86 -111 103 -54 16 -140 14 -182 -4z m275 -263
c-9 -116 -30 -222 -54 -276 -24 -54 -56 -66 -108 -41 -51 24 -131 103 -138
137 -4 16 -18 37 -32 46 -25 17 -53 68 -53 98 0 28 18 15 36 -25 16 -36 44
-55 44 -31 0 5 12 11 27 13 25 3 29 8 35 56 5 29 16 64 26 77 15 22 25 24 92
25 41 1 84 5 95 9 11 5 24 6 28 4 5 -3 6 -44 2 -92z m-416 -104 c-2 -1 -15
-11 -28 -22 l-24 -20 14 23 c8 12 20 22 28 22 8 0 12 -1 10 -3z m106 -84 c9
-23 29 -53 45 -67 16 -13 26 -27 23 -30 -13 -13 -86 -5 -122 14 -83 42 -106
113 -48 147 32 20 32 20 59 -1 14 -12 34 -40 43 -63z m-275 73 c0 -3 -4 -8
-10 -11 -5 -3 -10 -1 -10 4 0 6 5 11 10 11 6 0 10 -2 10 -4z m149 -130 c-3 -3
-11 5 -18 17 -13 21 -12 21 5 5 10 -10 16 -20 13 -22z m-328 1 c-10 -9 -11 -8
-5 6 3 10 9 15 12 12 3 -3 0 -11 -7 -18z m156 -29 c-3 -7 -5 -2 -5 12 0 14 2
19 5 13 2 -7 2 -19 0 -25z m173 6 c0 -8 -19 -13 -24 -6 -3 5 1 9 9 9 8 0 15
-2 15 -3z m-360 -69 c0 -5 -5 -3 -10 5 -5 8 -10 20 -10 25 0 6 5 3 10 -5 5 -8
10 -19 10 -25z m585 17 c-3 -3 -11 0 -18 7 -9 10 -8 11 6 5 10 -3 15 -9 12
-12z m185 -17 c0 -5 -5 -3 -10 5 -5 8 -10 20 -10 25 0 6 5 3 10 -5 5 -8 10
-19 10 -25z m-260 21 c0 -2 -7 -7 -16 -10 -8 -3 -12 -2 -9 4 6 10 25 14 25 6z
m-283 -73 c-3 -10 -5 -2 -5 17 0 19 2 27 5 18 2 -10 2 -26 0 -35z m-50 5 c-3
-8 -6 -5 -6 6 -1 11 2 17 5 13 3 -3 4 -12 1 -19z m661 -3 c-6 -14 -13 -23 -15
-21 -5 5 15 46 22 46 3 0 -1 -11 -7 -25z m-887 -36 c-5 -13 -10 -19 -10 -12
-1 15 10 45 15 40 3 -2 0 -15 -5 -28z m862 -24 c-3 -9 -8 -14 -10 -11 -3 3 -2
9 2 15 9 16 15 13 8 -4z m137 -40 c0 -5 -5 -3 -10 5 -5 8 -10 20 -10 25 0 6 5
3 10 -5 5 -8 10 -19 10 -25z m-748 -7 c-7 -7 -12 -8 -12 -2 0 14 12 26 19 19
2 -3 -1 -11 -7 -17z m-314 -45 c1 -24 0 -25 -9 -10 -5 9 -7 22 -4 27 9 15 10
13 13 -17z m870 -3 c-7 -10 -14 -17 -17 -15 -4 4 18 35 25 35 2 0 -1 -9 -8
-20z m-724 -49 c33 -6 61 -11 62 -11 1 0 -3 -15 -8 -34 -10 -32 -12 -33 -42
-25 -40 12 -82 3 -128 -27 -43 -27 -43 -27 -28 62 16 88 15 86 52 65 18 -11
60 -24 92 -30z m90 34 c-4 -8 -11 -15 -16 -15 -6 0 -5 6 2 15 7 8 14 15 16 15
2 0 1 -7 -2 -15z m-307 -21 c-3 -3 -12 -4 -19 -1 -8 3 -5 6 6 6 11 1 17 -2 13
-5z m996 -73 c20 -31 37 -61 37 -66 0 -4 24 -47 54 -94 29 -47 56 -94 59 -103
7 -21 -13 -24 -31 -6 -7 7 -12 8 -12 2 0 -6 11 -16 25 -22 20 -9 25 -19 25
-46 0 -45 17 -55 44 -24 21 24 22 24 53 8 18 -10 29 -21 25 -25 -4 -5 1 -5 10
-2 33 12 -1 -37 -42 -61 -51 -29 -62 -27 -25 4 17 15 23 23 15 19 -36 -19 -50
-38 -39 -52 9 -11 8 -12 -5 -7 -16 6 -83 -52 -78 -69 1 -5 -1 -6 -6 -3 -4 3
-27 -12 -50 -33 -23 -21 -42 -36 -42 -33 0 3 -15 -9 -34 -27 -19 -18 -35 -29
-37 -24 -3 4 -20 22 -39 38 l-34 30 32 -38 c27 -32 31 -42 21 -53 -14 -17 -6
-23 -87 72 -29 34 -52 64 -52 68 0 16 37 3 64 -21 l31 -28 -27 31 c-40 43 -36
65 5 28 l32 -29 -33 36 c-19 20 -41 36 -49 35 -9 0 -18 5 -21 13 -3 9 0 11 8
6 9 -5 11 -4 6 4 -4 6 -4 17 1 24 4 7 -3 0 -17 -15 l-25 -28 -32 20 c-18 10
-62 24 -98 31 -36 6 -75 20 -88 30 l-22 19 65 56 c100 88 255 249 312 325 28
38 54 69 57 69 3 -1 23 -27 44 -59z m167 44 c-7 -8 -20 -15 -29 -15 -11 0 -8
5 9 14 33 19 35 19 20 1z m-265 -4 c-9 -8 -36 -10 -30 -2 2 4 11 8 20 8 8 0
13 -3 10 -6z m185 -9 c13 -2 27 -6 30 -9 4 -4 -20 -2 -77 7 -2 0 -3 5 -3 11 0
6 5 7 13 2 6 -4 23 -9 37 -11z m138 -144 c16 -98 25 -124 49 -155 34 -44 48
-83 28 -83 -7 0 -28 11 -48 24 l-36 25 -23 -37 -22 -37 -6 60 c-5 60 -17 86
-88 200 -17 28 -33 61 -34 75 -3 23 1 25 55 32 32 4 65 12 75 17 9 5 20 7 24
3 3 -4 15 -60 26 -124z m-962 76 c12 -7 43 -50 69 -96 69 -120 122 -196 178
-255 44 -47 53 -52 115 -63 37 -6 82 -20 100 -31 18 -10 48 -20 67 -22 27 -2
31 -5 22 -16 -8 -10 -27 -12 -69 -7 -32 3 -58 2 -58 -3 0 -11 25 -21 55 -21
14 0 32 -11 45 -27 25 -32 20 -37 -67 -53 -79 -14 -85 -11 -229 117 -60 54
-174 154 -252 223 -145 128 -181 174 -163 208 32 61 127 84 187 46z m38 4 c-3
-4 -1 -8 4 -8 6 0 12 -7 16 -15 8 -21 3 -19 -22 8 -17 18 -19 24 -8 24 8 0 13
-4 10 -9z m516 -32 c0 -2 -8 -10 -17 -17 -16 -13 -17 -12 -4 4 13 16 21 21 21
13z m-50 -52 c0 -8 -19 -13 -24 -6 -3 5 1 9 9 9 8 0 15 -2 15 -3z m-366 -30
c3 -8 2 -12 -4 -9 -6 3 -10 10 -10 16 0 14 7 11 14 -7z m-21 -14 c3 -11 3 -20
1 -20 -2 0 -8 9 -14 20 -6 11 -7 20 -2 20 6 0 12 -9 15 -20z m352 1 c-3 -6
-11 -11 -17 -11 -6 0 -6 6 2 15 14 17 26 13 15 -4z m-565 -91 c6 -11 8 -20 6
-20 -3 0 -10 9 -16 20 -6 11 -8 20 -6 20 3 0 10 -9 16 -20z m29 -75 c0 -5 -4
-3 -9 5 -5 8 -9 22 -9 30 0 16 17 -16 18 -35z m31 0 c-6 -7 -6 -16 0 -23 7 -9
7 -9 -2 -2 -7 6 -13 21 -14 35 -1 20 2 23 13 14 9 -8 10 -15 3 -24z m263 8
c-4 -11 -3 -14 5 -9 7 4 12 2 12 -3 0 -15 -15 -14 -29 3 -11 13 -10 16 16 25
1 1 -1 -6 -4 -16z m-187 -88 c-1 -8 -5 -17 -8 -21 -5 -4 -4 16 1 34 3 9 9 -1
7 -13z m50 -7 c4 -7 4 -10 -1 -6 -4 4 -15 2 -24 -5 -14 -11 -14 -10 -2 6 16
20 18 21 27 5z m28 -26 c3 -5 -1 -9 -9 -9 -8 0 -12 4 -9 9 3 4 7 8 9 8 2 0 6
-4 9 -8z m-2035 -558 c20 -28 66 -71 99 -90 2 -1 -12 -26 -31 -55 -18 -30 -44
-81 -56 -114 -45 -119 -59 -144 -87 -151 -38 -10 -56 5 -77 62 -28 78 -19 167
25 235 19 30 41 71 47 92 11 31 32 56 51 57 3 0 16 -16 29 -36z m105 -194 c14
-22 22 -40 17 -40 -5 0 -32 -16 -61 -35 -47 -32 -51 -33 -45 -12 10 31 53 127
58 127 2 0 16 -18 31 -40z m-282 -40 c-3 -53 -6 -59 -17 -43 -24 35 -27 63
-10 89 23 36 30 24 27 -46z m56 -187 c23 -19 37 -16 73 14 l32 28 -7 -45 c-13
-83 -54 -115 -101 -79 -26 21 -45 74 -45 124 l1 30 15 -30 c9 -16 23 -36 32
-42z"/>
<path d="M8009 2313 c-13 -16 -12 -17 4 -4 16 13 21 21 13 21 -2 0 -10 -8 -17
-17z"/>
<path d="M8290 2242 c0 -5 -12 -14 -26 -21 -14 -6 -53 -41 -87 -77 l-60 -65
-31 28 -30 28 29 -37 30 -36 55 61 c30 33 74 73 98 88 24 15 38 30 33 34 -6 3
-11 2 -11 -3z"/>
<path d="M1755 2810 c-3 -5 -19 -7 -35 -3 -24 4 -51 -7 -144 -61 -113 -66
-115 -67 -121 -109 -3 -23 -5 -166 -3 -317 l3 -275 185 -107 c102 -59 194
-112 205 -118 18 -10 37 -2 123 47 l101 58 1 41 c0 33 5 44 30 62 17 13 33 38
39 59 6 22 11 141 11 273 0 218 -2 237 -20 268 -29 47 -101 78 -148 64 -42
-13 -52 -9 -52 22 0 31 -32 70 -74 90 -38 18 -92 21 -101 6z m-32 -16 c4 -4
-10 -16 -31 -26 -44 -24 -58 -36 -50 -44 4 -3 18 2 32 12 25 16 29 16 67 -2
23 -10 63 -43 90 -73 41 -46 53 -54 66 -45 27 17 26 29 -6 63 -16 17 -27 31
-25 31 5 0 106 -60 137 -82 15 -11 27 -25 27 -31 0 -7 -41 -34 -92 -61 -79
-42 -92 -46 -100 -32 -8 14 -175 117 -281 174 l-39 20 94 51 c98 54 101 55
111 45z m156 -36 c22 -39 9 -43 -43 -13 -56 33 -59 47 -9 43 28 -2 41 -9 52
-30z m-70 -15 c56 -42 97 -96 86 -113 -5 -8 -27 9 -59 43 -29 30 -70 64 -92
75 l-39 21 34 1 c22 0 47 -10 70 -27z m275 -95 c23 -32 24 -549 1 -568 -12
-10 -14 22 -17 243 l-3 255 -32 40 c-34 42 -31 50 14 51 12 1 29 -9 37 -21z
m-509 -8 c38 -25 30 -25 -20 0 -22 11 -33 20 -25 20 8 0 29 -9 45 -20z m-85 6
c0 -3 -4 -8 -10 -11 -5 -3 -10 -1 -10 4 0 6 5 11 10 11 6 0 10 -2 10 -4z m221
-89 c13 -10 6 -8 -17 5 -22 13 -52 31 -65 41 -13 10 -6 8 17 -5 22 -13 52 -31
65 -41z m52 -63 c46 -33 67 -67 67 -102 -1 -12 -29 50 -30 65 0 1 -24 18 -52
38 -29 19 -48 35 -43 35 6 0 32 -16 58 -36z m28 19 c13 -17 13 -17 -6 -3 -11
8 -22 16 -24 17 -2 2 0 3 6 3 6 0 17 -8 24 -17z m33 -29 c3 -8 2 -12 -4 -9 -6
3 -10 10 -10 16 0 14 7 11 14 -7z m-347 -291 c-1 -49 -3 -9 -3 87 0 96 2 136
3 88 2 -49 2 -127 0 -175z m58 217 c3 -6 -1 -7 -9 -4 -18 7 -21 14 -7 14 6 0
13 -4 16 -10z m-44 -352 c11 -21 11 -22 -4 -9 -10 7 -17 17 -17 22 0 15 9 10
21 -13z m203 -112 c17 7 41 -22 26 -31 -6 -4 -9 -1 -8 7 2 7 -4 13 -13 13 -22
0 -69 26 -69 37 0 5 12 0 26 -11 14 -11 31 -18 38 -15z m360 5 c3 -5 -1 -11
-9 -14 -9 -4 -12 -1 -8 9 6 16 10 17 17 5z m-54 -35 c0 -2 -12 -11 -27 -20
l-28 -17 24 20 c23 21 31 25 31 17z m-153 -60 c0 -8 -6 -12 -15 -9 -11 5 -11
7 0 14 7 5 13 9 14 9 0 0 1 -6 1 -14z"/>
<path d="M2564 2516 c11 -9 24 -16 30 -16 12 0 7 5 -24 19 -24 11 -24 11 -6
-3z"/>
<path d="M2626 2461 c17 -10 41 -32 54 -47 21 -27 22 -27 15 -5 -6 18 -4 22 6
16 8 -5 11 -4 6 1 -5 5 -14 9 -20 9 -7 1 -11 6 -10 12 1 6 -5 17 -15 25 -15
12 -16 11 -3 -4 16 -22 3 -23 -23 -3 -11 8 -25 15 -30 15 -6 0 3 -9 20 -19z"/>
<path d="M2970 2419 c0 -5 9 -9 20 -9 11 0 20 2 20 4 0 2 -9 6 -20 9 -11 3
-20 1 -20 -4z"/>
<path d="M2800 2406 c0 -2 9 -6 20 -9 11 -3 18 -1 14 4 -5 9 -34 13 -34 5z"/>
<path d="M2773 2373 c9 -2 25 -2 35 0 9 3 1 5 -18 5 -19 0 -27 -2 -17 -5z"/>
<path d="M2880 2370 c8 -5 20 -10 25 -10 6 0 3 5 -5 10 -8 5 -19 10 -25 10 -5
0 -3 -5 5 -10z"/>
<path d="M2861 2356 c2 -2 15 -9 29 -15 24 -11 24 -11 6 3 -16 13 -49 24 -35
12z"/>
</g>
</svg>
